<svg xmlns="http://www.w3.org/2000/svg" xmlns:xlink="http://www.w3.org/1999/xlink" width="141" height="45" viewBox="0 0 141 45">
    <defs>
        <path id="a" d="M.047 9.22h9.705V.232H.047V9.22z"/>
        <path id="c" d="M61.031 0H.211v40.084h60.82V.001z"/>
    </defs>
    <g fill="none" fill-rule="evenodd">
        <path fill="#FEFEFE" d="M115.34 19.486a.335.335 0 0 0-.192-.065.326.326 0 0 0-.192.051c-.068.221-.11.273-1.152.273h-4.753c-1.041 0-1.083-.052-1.151-.273a.328.328 0 0 0-.192-.051.34.34 0 0 0-.193.065c-.096.506-.164 1.311-.45 2.208.081.168.341.194.506.116.411-.948.699-1.467 1.7-1.467h.85c.328 0 .328.064.328.377v5.727c0 1.208-.083 1.325-.699 1.39l-.616.065c-.11.078-.11.377 0 .455.96-.027 1.671-.04 2.329-.04a72.5 72.5 0 0 1 2.194.04c.095-.078.095-.377 0-.455l-.55-.065c-.616-.078-.698-.182-.698-1.39V20.72c0-.339.041-.377.37-.377h.806c1.001 0 1.288.52 1.7 1.467.164.078.425.052.507-.116-.288-.897-.357-1.702-.453-2.208M74.484 21.85c0-1.312-.027-1.469-.603-1.533l-.425-.052c-.123-.065-.123-.35.027-.442a43.854 43.854 0 0 1 3.166-.117c1.165 0 1.933.13 2.509.338.835.299 1.67.987 1.67 2.247 0 2.13-2.26 2.442-2.987 2.442-.164 0-.287 0-.439-.013-.108-.065-.136-.273-.04-.351 1.137-.338 1.37-1.104 1.37-2.065 0-.961-.52-2-1.754-2-.507 0-.534.142-.534.662v5.481c0 1.208.082 1.312.698 1.403l.439.065c.15.065.15.364 0 .441a56.607 56.607 0 0 0-4.153 0c-.15-.077-.178-.376-.028-.44l.385-.066c.616-.104.699-.195.699-1.403V21.85zM84.789 23.499c0 .454.04.493.85.493.493 0 .78-.116 1.041-.364.233-.22.494-.636.494-1.402 0-1.169-.727-1.923-1.796-1.923-.562 0-.59.04-.59.663V23.5zm-1.878-1.65c0-1.299-.028-1.442-.603-1.52l-.37-.051c-.137-.065-.137-.39.027-.455a51.462 51.462 0 0 1 3.4-.117c1.164 0 2.164.169 2.686.468.794.442 1.206 1.09 1.206 1.922 0 1.156-.822 1.65-1.454 1.948-.136.065-.136.143-.067.286.904 1.74 1.466 2.715 2.123 3.247.357.273.713.351.919.364.124.065.124.26.055.338-.22.09-.658.117-1.083.117-1.26 0-2.056-.43-2.659-1.364a15.867 15.867 0 0 1-1.069-2.014c-.165-.35-.384-.454-.726-.454-.48 0-.507.026-.507.286v1.597c0 1.195.081 1.287.699 1.39l.369.065c.097.065.097.377 0 .455a51.558 51.558 0 0 0-4.015 0c-.11-.078-.11-.39 0-.455l.37-.065c.616-.103.699-.195.699-1.39V21.85zM94.467 26.421c0 1.221.082 1.312.713 1.416l.383.065c.11.078.097.377-.013.455-.74-.027-1.411-.04-2.057-.04-.656 0-1.342.013-2.083.04-.11-.078-.11-.377 0-.455l.384-.065c.631-.104.713-.195.713-1.416v-4.78c0-1.221-.082-1.311-.713-1.415l-.384-.065c-.11-.078-.11-.377 0-.455.74.026 1.427.039 2.083.039.646 0 1.33-.013 2.07-.039.11.078.11.377 0 .455l-.383.065c-.63.104-.713.194-.713 1.415v4.78zM105.308 26.11c0 .843 0 1.662.027 2.09-.096.156-.48.3-.808.3-.014 0-.466-.663-1.11-1.416l-3.166-3.715c-.795-.923-1.248-1.468-1.494-1.663-.068.13-.068.351-.068.832v2.52c0 1.051.054 2.026.204 2.376.124.273.439.364.796.416l.383.052c.11.104.083.377 0 .454a49.927 49.927 0 0 0-1.836-.039c-.507 0-1.015.013-1.535.04-.082-.078-.11-.351 0-.455l.233-.04c.37-.064.644-.155.754-.428.15-.35.191-1.325.191-2.377v-3.299c0-.714-.014-.922-.095-1.104-.11-.22-.302-.376-.782-.441l-.383-.052c-.097-.104-.083-.416.054-.455.645.026 1.33.039 1.892.039.466 0 .863-.013 1.151-.039.137.584 1.028 1.572 2.262 2.962l1.15 1.285c.603.676 1 1.13 1.316 1.43.056-.131.056-.351.056-.586v-1.792c0-1.052-.056-2.026-.207-2.377-.123-.273-.424-.363-.794-.415l-.37-.052c-.11-.104-.083-.377 0-.455.74.026 1.274.039 1.836.039.507 0 1-.013 1.536-.039.082.078.109.35 0 .455l-.247.039c-.356.052-.617.155-.74.428-.15.35-.206 1.325-.206 2.377v3.104zM119.672 23.122c0 .364.014.39.384.39H121c.713 0 .878-.091 1.015-.715l.068-.324c.096-.105.439-.105.507.013-.027.415-.04.883-.04 1.377 0 .493.013.96.04 1.377-.068.116-.41.129-.507.012l-.068-.324c-.137-.624-.302-.728-1.015-.728h-.945c-.37 0-.384.013-.384.403v1.545c0 .598.054 1.014.22 1.235.177.233.438.337 1.438.337 1.193 0 1.658-.039 2.412-1.506.11-.143.453-.092.508.064-.055.676-.384 1.728-.576 2.079-.726-.027-2.042-.04-3.166-.04h-1.782c-.658 0-1.33.013-2.357.04-.11-.078-.11-.39 0-.455l.644-.091c.617-.09.7-.17.7-1.364v-4.845c0-1.182-.083-1.26-.7-1.376l-.343-.066c-.123-.077-.109-.376.028-.454.644.026 1.316.039 1.973.039h2.906c.877 0 1.658-.013 1.837-.039.013.208.11 1.143.178 2.013-.055.143-.37.17-.507.052-.151-.454-.343-.844-.52-1.026-.262-.247-.672-.403-1.344-.403h-1.097c-.452 0-.452.027-.452.507v2.273zM128.06 23.499c0 .454.042.493.85.493.494 0 .78-.116 1.041-.364.234-.22.494-.636.494-1.402 0-1.169-.727-1.923-1.796-1.923-.561 0-.589.04-.589.663V23.5zm-1.877-1.65c0-1.299-.028-1.442-.604-1.52l-.37-.051c-.136-.065-.136-.39.028-.455a51.413 51.413 0 0 1 3.399-.117c1.165 0 2.165.169 2.686.468.796.442 1.206 1.09 1.206 1.922 0 1.156-.822 1.65-1.452 1.948-.137.065-.137.143-.069.286.904 1.74 1.467 2.715 2.124 3.247.357.273.713.351.918.364.124.065.124.26.055.338-.22.09-.657.117-1.082.117-1.261 0-2.056-.43-2.66-1.364a15.867 15.867 0 0 1-1.068-2.014c-.165-.35-.384-.454-.727-.454-.479 0-.507.026-.507.286v1.597c0 1.195.082 1.287.699 1.39l.37.065c.096.065.096.377 0 .455a51.558 51.558 0 0 0-4.016 0c-.11-.078-.11-.39 0-.455l.371-.065c.616-.103.7-.195.7-1.39V21.85zM137.147 28.525c-1.261 0-2.042-.338-2.33-.494-.26-.285-.438-1.22-.438-2.103.096-.169.41-.182.52-.04.275.845 1.192 2.04 2.358 2.04 1.014 0 1.48-.663 1.48-1.312 0-1.052-1.042-1.675-1.864-2.065-.987-.468-2.07-1.247-2.07-2.533-.014-1.468 1.192-2.48 3.18-2.48.452 0 1.014.051 1.563.207.177.052.301.078.465.104.11.286.248.987.248 1.857-.069.156-.412.17-.536.04-.233-.663-.822-1.611-1.81-1.611-.904 0-1.396.558-1.396 1.208 0 .598.562 1.143 1.247 1.48l.904.454c.85.43 1.933 1.183 1.933 2.612 0 1.597-1.385 2.636-3.454 2.636M73.62 36.131c-.11-.104-.11-.415.042-.454.465.026 1.055.039 1.727.039.451 0 .849 0 1.342-.04 0 .806.48 1.599 1.083 2.82l.905 1.83c.123.26.616 1.078.809 1.404.177-.312.397-.715.766-1.481l.7-1.43c.658-1.337 1-2.025 1.301-3.142.632.051.946.039 1.358.039.452 0 1.083-.013 1.576-.04.15.079.15.325.041.455l-.398.066c-.562.09-.836.246-.836.934 0 2.676.028 4.08.11 5.716.027.597.083.909.617.974l.439.052c.109.103.109.402-.028.454-.63-.026-1.22-.039-1.891-.039-.617 0-1.37.013-2.029.04-.164-.066-.178-.364-.041-.455l.412-.052c.63-.079.63-.234.63-1.027l-.027-3.376v-1.481H82.2c-1.014 2.078-2.11 4.247-3.016 6.442a.45.45 0 0 1-.274.091.755.755 0 0 1-.356-.078c-.534-1.61-2.22-4.831-2.988-6.52h-.027a42.818 42.818 0 0 0-.082 2.091c-.014.844-.028 2.143-.028 2.923 0 .649.083.83.631.909l.535.078c.109.09.082.39-.028.454a31.954 31.954 0 0 0-3.124 0c-.18-.052-.18-.39-.056-.454l.246-.04c.7-.116.782-.195.864-1 .068-.636.11-1.766.192-3 .055-.87.082-1.922.082-2.624 0-.74-.301-.935-.849-1.026l-.302-.052zM91.07 42.418c0 1.208.082 1.312.699 1.39l.549.065c.096.078.096.376 0 .454a71.92 71.92 0 0 0-2.221-.039c-.657 0-1.344.012-2.152.04-.11-.079-.11-.377 0-.455l.466-.065c.617-.092.699-.182.699-1.39v-.65c0-.65-.014-.857-.37-1.546l-1.63-3.194c-.275-.533-.399-.74-.878-.819l-.466-.078c-.123-.103-.11-.416.055-.454.617.026 1.124.038 1.932.038.836 0 1.535-.012 2.001-.038.124.052.151.35.028.454l-.466.104c-.247.052-.33.105-.33.117 0 .104.069.3.358.91l.644 1.39c.205.428.52 1.025.685 1.35.397-.637.822-1.48 1.178-2.143.494-.922.658-1.312.658-1.468 0-.078-.218-.156-.548-.208l-.26-.052c-.11-.065-.124-.389.013-.454.548.026 1.041.038 1.536.038.52 0 .945-.012 1.342-.038.165.052.165.364.056.454l-.357.065c-.247.04-.562.13-.712.312-.206.247-.535.714-1.193 1.844l-.864 1.482c-.356.61-.452.934-.452 1.674v.91zM97.25 44.496c-1.262 0-2.043-.338-2.33-.494-.262-.285-.44-1.22-.44-2.104.097-.168.412-.182.522-.039.273.845 1.192 2.04 2.357 2.04 1.014 0 1.48-.663 1.48-1.312 0-1.053-1.041-1.676-1.864-2.065-.987-.468-2.07-1.247-2.07-2.533-.013-1.468 1.193-2.481 3.18-2.481.453 0 1.014.052 1.563.208.178.052.301.078.465.103.11.286.247.987.247 1.858-.068.156-.41.169-.534.039-.233-.662-.823-1.61-1.81-1.61-.904 0-1.397.558-1.397 1.208 0 .597.562 1.142 1.247 1.48l.904.454c.85.43 1.933 1.182 1.933 2.611 0 1.598-1.384 2.637-3.454 2.637"/>
        <g transform="translate(101.944 35.276)">
            <mask id="b" fill="#fff">
                <use xlink:href="#a"/>
            </mask>
            <path fill="#FEFEFE" d="M4.83.83c-1.685 0-2.59 1.494-2.59 3.662 0 1.585.59 4.13 2.824 4.13 1.795 0 2.494-1.662 2.494-3.766C7.558 2.636 6.53.83 4.83.83m4.92 3.857c0 2.831-2 4.533-4.947 4.533C2.048 9.22.047 7.505.047 4.79.047 2.22 2.077.233 4.94.233c2.85 0 4.81 1.818 4.81 4.455" mask="url(#b)"/>
        </g>
        <path fill="#FEFEFE" d="M115.801 39.47c0 .454.042.493.85.493.493 0 .78-.117 1.041-.364.234-.22.494-.636.494-1.402 0-1.17-.727-1.923-1.796-1.923-.562 0-.589.04-.589.663v2.532zm-1.878-1.65c0-1.299-.027-1.442-.602-1.52l-.37-.052c-.138-.065-.138-.39.027-.454a51.407 51.407 0 0 1 3.398-.117c1.165 0 2.166.169 2.688.467.794.442 1.205 1.091 1.205 1.923 0 1.155-.823 1.649-1.453 1.948-.137.065-.137.143-.069.286.905 1.74 1.468 2.714 2.124 3.247.357.272.714.35.92.364.123.064.123.26.055.337-.22.091-.658.117-1.083.117-1.261 0-2.056-.428-2.66-1.364-.439-.688-.754-1.325-1.068-2.013-.165-.35-.384-.454-.727-.454-.48 0-.507.026-.507.285v1.598c0 1.195.083 1.286.699 1.39l.37.065c.096.065.096.376 0 .454a51.57 51.57 0 0 0-4.016 0c-.11-.078-.11-.39 0-.454l.37-.065c.617-.104.7-.195.7-1.39V37.82zM125.552 39.093c0 .363.014.39.384.39h.945c.713 0 .878-.092 1.015-.715l.068-.325c.096-.104.439-.104.507.013-.027.416-.04.883-.04 1.378 0 .493.013.96.04 1.376-.068.117-.41.13-.507.013l-.068-.324c-.137-.624-.302-.728-1.015-.728h-.945c-.37 0-.384.013-.384.402v1.546c0 .598.055 1.013.22 1.234.178.234.438.338 1.439.338 1.192 0 1.658-.04 2.411-1.507.11-.143.453-.091.508.065-.055.675-.385 1.728-.575 2.078-.727-.026-2.043-.039-3.167-.039h-1.781c-.659 0-1.33.013-2.358.04-.11-.079-.11-.39 0-.455l.645-.092c.616-.09.699-.168.699-1.363v-4.845c0-1.182-.083-1.26-.699-1.376l-.344-.066c-.123-.077-.109-.376.028-.454.644.026 1.316.038 1.973.038h2.906c.877 0 1.658-.012 1.837-.038.014.208.11 1.142.178 2.013-.055.143-.37.169-.507.052-.15-.454-.342-.844-.52-1.026-.262-.247-.672-.403-1.344-.403h-1.097c-.452 0-.452.027-.452.506v2.274zM86.472 8.169c-.562 0-.576.013-.576.377v1.87c0 1.208.082 1.324.7 1.402l.437.053c.11.078.11.376 0 .454a54.176 54.176 0 0 0-4.125 0c-.11-.078-.11-.376 0-.454l.33-.04c.63-.077.698-.207.698-1.415V5.584c0-1.208-.068-1.338-.699-1.416l-.329-.039c-.11-.077-.11-.376 0-.454.672.026 1.384.039 2.042.039.618 0 1.302-.013 1.906-.04.109.079.109.378 0 .455l-.287.04c-.59.077-.673.207-.673 1.415v1.507c0 .376.014.39.576.39h2.85c.577 0 .577-.014.577-.39V5.584c0-1.208-.07-1.312-.7-1.403l-.37-.052c-.11-.077-.11-.376 0-.454.754.026 1.426.039 2.083.039.672 0 1.302-.013 1.933-.04.11.079.11.378 0 .455l-.274.04c-.63.09-.713.207-.713 1.415v4.832c0 1.208.082 1.299.713 1.402l.33.053c.108.078.108.376 0 .454a51.94 51.94 0 0 0-4.003 0c-.11-.078-.11-.376 0-.454l.3-.04c.631-.077.7-.207.7-1.415v-1.87c0-.364 0-.377-.575-.377h-2.851zM97.286 7.09c0 .364.014.39.384.39h.945c.713 0 .877-.09 1.014-.714l.069-.325c.096-.104.439-.104.507.013-.027.416-.04.883-.04 1.378 0 .493.013.96.04 1.376-.068.117-.411.13-.507.013l-.069-.324c-.137-.624-.301-.729-1.014-.729h-.945c-.37 0-.384.014-.384.403v1.546c0 .598.055 1.013.22 1.234.178.234.438.338 1.439.338 1.192 0 1.658-.04 2.411-1.507.11-.143.453-.091.507.065-.054.675-.383 1.728-.575 2.078-.726-.026-2.042-.039-3.166-.039H96.34c-.659 0-1.33.013-2.359.04-.108-.079-.108-.39 0-.455l.646-.092c.616-.09.698-.168.698-1.363V5.571c0-1.182-.082-1.26-.698-1.377l-.344-.065c-.123-.077-.11-.376.027-.454.645.026 1.317.038 1.974.038h2.906c.877 0 1.659-.012 1.836-.038.014.208.11 1.142.179 2.013-.055.143-.37.169-.508.052-.15-.454-.342-.844-.52-1.026-.26-.247-.672-.403-1.343-.403h-1.097c-.452 0-.452.027-.452.506v2.274zM81.577 3.454a.336.336 0 0 0-.193-.065.325.325 0 0 0-.19.052c-.07.221-.11.272-1.153.272h-4.753c-1.041 0-1.083-.051-1.152-.272a.325.325 0 0 0-.19-.052.338.338 0 0 0-.193.065c-.096.507-.165 1.312-.452 2.208.081.17.342.195.506.117.411-.948.699-1.468 1.7-1.468h.85c.33 0 .33.065.33.377v5.728c0 1.208-.083 1.324-.7 1.39l-.617.065c-.11.077-.11.376 0 .454.96-.027 1.671-.039 2.33-.039.616 0 1.302.012 2.193.04.096-.079.096-.378 0-.455l-.549-.065c-.616-.078-.698-.182-.698-1.39V4.688c0-.338.041-.377.37-.377h.806c1 0 1.288.52 1.7 1.468.164.078.425.052.506-.117-.287-.896-.355-1.701-.451-2.208M65.021 38.07c-.066-.559-.077-.66-.239-.66-.04 0-.08.016-.11.045-.051.048-.055.109-.067.185-.316 1.224-.897 1.8-.906 1.81l-.009.01c-1.025 1.31-2.664 2.092-4.384 2.092H5.741c-2.106 0-4.045-1.168-4.939-2.973-.086-.182-.315-.71-.34-.954-.006-.059-.022-.214-.173-.214-.163 0-.187.108-.24.662-.03.31-.049.64-.049.822 0 3.01 2.584 5.459 5.76 5.459h53.566c3.176 0 5.759-2.449 5.759-5.459 0-.202-.033-.559-.064-.825"/>
        <g transform="translate(2.115 .4)">
            <mask id="d" fill="#fff">
                <use xlink:href="#c"/>
            </mask>
            <path fill="#FEFEFE" d="M.802 36.868l.012-.056c.066-.304.093-.43.341-1.09.104-.277.258-.522.426-.775.157-.246.154-.493-.034-.77l-.004-.006-.008-.012a.937.937 0 0 1-.15-.574.987.987 0 0 1 .504-.801c.694-.376.933-.8.712-1.257-.262-.549-.064-1.14.282-2.059 1.132-2.991 2.55-4.066 3.54-4.44.325-.122.652-.181.998-.181.504 0 .975.122 1.472.25l.452.115c.42.098.658-.027.746-.14.063-.083.123-.23.047-.451a2.364 2.364 0 0 1-.071-1.186c.135-.717.837-1.364 1.27-1.575a.266.266 0 0 0 .143-.324c-.371-1.126-.025-1.727.413-2.487.055-.094.11-.19.167-.294.177-.32.36-.651.498-1.01.387-1.012-.148-1.842-.395-2.15a.295.295 0 0 0-.284-.104 8.054 8.054 0 0 1-1.443.128c-1.773 0-3.998-.594-4.923-2.26-1.243-2.238-.395-3.306.707-4.127.079-.058.218-.14.404-.249.939-.554 2.89-1.705 4.673-4 1.268-1.639 2.483-2.012 2.947-2.096a.286.286 0 0 0 .207-.153c.183-.377.62-1.043 1.495-1.267a2.7 2.7 0 0 1 .667-.088c.641 0 1.104.26 1.38.479a.3.3 0 0 0 .37-.002c.544-.434 2-1.183 5.65-1.31.04 0 .076.017.1.048.023.03.028.07.014.105-.032.081-.795 1.983-1.66 3.21a.26.26 0 0 0-.016.277.289.289 0 0 0 .249.147c.504.01 1.25.098 1.934.462a.11.11 0 0 1 .042.16c-.022.034-.548.825-.704 1.165-.135.292-.223.503-.31.71-.122.289-.208.497-.38.792a.26.26 0 0 0 .041.319c.3.304 2.988 2.995 4.447 3.769.15.08.288.139.41.177.33.1.677.148 1.06.148.635 0 1.267-.136 1.877-.267.185-.04.368-.08.552-.115.637-.124 1.313-.246 1.95-.246.709 0 1.253.156 1.662.474.902.704 1.257 1.755 1.025 3.06l-.011.062c-.066.36-.267 1.45.23 2.049.193.231.471.365.833.386 1.047-.029 3.96-.505 5.525-.761.337-.055.6-.099.746-.12a17.695 17.695 0 0 1 2.469-.163c1.43 0 2.902.147 4.252.427 3.182.659 5.484 2.102 6.666 4.184.93 1.477 1.64 3.268 1.772 3.612.009.022.02.044.035.063.151.202.922 1.28 1.33 2.75.592 2.14.361 5.329-1.233 7.024a.263.263 0 0 0-.034.318l.072.118c.413.785.453 1.548.116 2.27-.876 1.878-3.045 2.09-4.086 2.191-.098.01-.185.018-.257.027-.457.055-3.241.161-6.712.161-3.13 0-8.868-.092-12.116-.71a.283.283 0 0 0-.1-.002c-1.87.278-5.359.577-8.598.577-.728 0-1.42-.016-2.057-.046-1.138-.054-3.429-.46-3.891-.82a.314.314 0 0 0-.355-.006c-.13.09-1.319.873-3.183.873h-.074c-.013 0-.03 0-.044.002-1.494.043-4.45-.115-6.636-.35a38.305 38.305 0 0 1-.983-.118c-.859-.081-1.574-.091-2.08-.024-.195.024-.409.078-.657.14-.524.133-1.243.314-2.237.314-.09 0-.184-.001-.289-.004-.452 0-.947-.074-1.471-.219-1.811-.498-2.584-1.643-2.446-2.278m2.285 2.8a6.12 6.12 0 0 0 1.62.241h.002c1.225.036 2.079-.174 2.685-.327.228-.058.426-.108.586-.128.458-.06 1.143-.05 1.933.025.3.04.633.08.988.119 2.23.24 5.248.4 6.753.352h.065c1.71 0 2.92-.614 3.357-.874.87.46 3.156.784 4.043.826.647.03 1.349.046 2.086.046 3.24 0 6.733-.297 8.636-.576 3.137.588 8.348.712 12.178.712 3.296 0 6.22-.098 6.784-.166l.243-.025c1.06-.103 3.542-.345 4.554-2.514.404-.867.366-1.775-.116-2.71 1.624-1.882 1.853-5.104 1.224-7.378a9.46 9.46 0 0 0-1.393-2.895c-.165-.423-.877-2.193-1.8-3.66-1.256-2.216-3.692-3.753-7.043-4.447a21.93 21.93 0 0 0-4.374-.44c-.9 0-1.784.058-2.558.169-.15.023-.415.066-.755.122-1.44.236-4.437.726-5.417.754-.174-.011-.299-.068-.391-.179-.155-.186-.3-.618-.116-1.618.006-.033.011-.06.013-.085.267-1.488-.158-2.717-1.229-3.551-.515-.403-1.178-.598-2.026-.598-.691 0-1.4.127-2.066.257-.187.036-.374.076-.563.117-.908.195-1.883.36-2.634.13a1.854 1.854 0 0 1-.308-.134c-1.013-.537-2.843-2.2-4.165-3.524.13-.24.214-.443.32-.699.077-.18.164-.387.296-.672.102-.225.453-.776.664-1.093a.639.639 0 0 0 .086-.513.667.667 0 0 0-.335-.412 4.715 4.715 0 0 0-1.709-.501c.787-1.251 1.43-2.853 1.46-2.927a.63.63 0 0 0-.086-.617.721.721 0 0 0-.589-.274h-.001c-3.352.118-5.003.746-5.813 1.303a2.787 2.787 0 0 0-1.563-.47c-.266 0-.54.036-.817.107-1.007.258-1.546.967-1.803 1.44-.693.16-1.912.668-3.158 2.28C9.117 6.87 7.228 7.985 6.32 8.52c-.21.124-.366.217-.456.284-1.163.866-2.312 2.195-.86 4.808 1.043 1.88 3.49 2.55 5.431 2.55.467 0 .926-.035 1.368-.106.221.326.456.866.214 1.502-.125.324-.298.64-.47.95l-.16.279c-.419.729-.852 1.48-.519 2.703-.537.34-1.218 1.047-1.368 1.849-.085.454-.067.9.062 1.36a1.528 1.528 0 0 1-.077-.016l-.441-.112c-.513-.133-1.043-.27-1.624-.27-.42 0-.816.072-1.21.22-1.1.417-2.665 1.58-3.87 4.763-.326.87-.635 1.69-.262 2.468.031.064.114.239-.475.559a1.533 1.533 0 0 0-.792 1.24c-.02.315.06.623.233.89l.01.016.032.048c.04.057.054.078.002.158-.137.207-.342.52-.475.876-.262.695-.296.851-.363 1.163l-.012.056c-.214.986.793 2.344 2.848 2.91" mask="url(#d)"/>
        </g>
        <path fill="#FEFEFE" d="M50.834 19.845l.021.022c.706.743 1.5 1.58 2.368 2.312l.035.03c1.897 1.71 3.541 1.73 3.61 1.73 1.185 0 2.138-.665 2.402-.869.026-.02.05-.04.07-.058a17.967 17.967 0 0 0-.458-.852 18.22 18.22 0 0 0-.726-1.121l-.01-.011a5.89 5.89 0 0 0-.688-.806c-2.007-1.933-5.104-2.57-7.37-2.764h-.051a19.993 19.993 0 0 0-2.108-.073c.668.396 1.274.846 1.802 1.339.33.308.688.685 1.103 1.121"/>
        <path fill="#FEFEFE" d="M49.556 20.975c.7.737 1.567 1.65 2.497 2.433 2.309 2.083 4.417 2.188 4.816 2.188 1.464 0 2.638-.64 3.23-1.042l-.26-.54c-.468.331-1.584 1.001-2.97 1.001-.22 0-2.208-.057-4.401-2.035-.915-.77-1.77-1.67-2.456-2.393a26.73 26.73 0 0 0-1.077-1.097c-.83-.776-1.846-1.415-3.02-1.901-.378.055-.771.12-1.172.193 1.076.342 2.535.977 3.762 2.122.297.277.646.645 1.051 1.071M22.364 10.151a3.73 3.73 0 0 1-.173-.004c.181.457.68 1.982-.165 3.145-.959 1.317-2.852 1.637-4.234 1.87l-.068.011-.268.046c-.102.021-.237.04-.394.064-.514.072-1.374.193-1.361.558.014.407.386.65.996.65.217 0 .445-.03.678-.092.335-.12.691-.267 1.055-.436a.51.51 0 0 1 .654.213.439.439 0 0 1 .024.354.47.47 0 0 1-.248.266c-.797.371-1.548.64-2.232.8-.197.074-.274.209-.22.398.058.205.173.297.375.297a.89.89 0 0 0 .077-.004c3.147-.69 7.81-2.296 12.143-6.034-1.36-.918-3.105-2.611-3.842-3.348-.493.484-1.477 1.246-2.797 1.246M21.22 5.12c1.05 0 2.348-.76 3.157-1.85a9.794 9.794 0 0 0 1.028-1.696l.002-.005c-.812.085-4.757.563-5.42 1.926-.175.36-.098.763.229 1.199.209.279.556.427 1.005.427M14.236 23.767l.323.001c1.52 0 3.164-.114 4.887-.339 3.51-.459 9.12-1.64 15.919-4.651a.277.277 0 0 0 .15-.295c-.017-.097-.12-.33-.707-.405-1.24-.236-1.582-1.283-1.585-1.293 0 0-.024-.108.006-.194a.587.587 0 0 1 .22-.296.516.516 0 0 1 .256-.068c.171 0 .326.082.416.22.017.024.429.622 1.401.622l.072-.001c.886-.027 1.927-.722 2.141-1.43.332-1.306.088-2.285-.727-2.91-.305-.234-.725-.347-1.285-.347-.188 0-.391.012-.621.038-1.348.23-2.24 1.25-2.577 1.632l-.225.285-.168.174c-3.194 3.593-7.191 5.247-11.041 6.496-3.216 1.044-5.851 1.328-6.835 1.401-.278.035-.686.257-.655.722.025.36.349.611.635.638M14.142 35.936c-.353-.472-.89-1.112-1.556-1.59-.782-.563-1.57-.557-1.998-.311-.466.266-.548.666-.622.972-.086.359-.23 1.212-.362 2.037-.123.766.702 1.28 2.008 1.084 1.513-.211 3.612-.59 2.53-2.191z"/>
        <path fill="#FEFEFE" d="M3.607 37.653s.18-.628.49-1.39c.116-.232.257-.35.418-.35.045 0 .09.01.13.026a.227.227 0 0 1 .13.135c.072.184-.05.438-.065.467-.003.006-.315.655-.476 1.526-.038.21.246.36.246.36l.011.005c.048.02.098.043.152.062.66.228 1.057-.236 1.19-1.385.204-1.8-.18-2.048-.46-2.228l-.064-.043c-.226-.147-.452-.316-.465-.6.05-.523.555-.566 1.114-.566.253 0 .553.013.954.032.539.028.94-.228 1.113-.69.192-.513.068-1.278-.542-1.748-.829-.661-1.139-1.124-.975-1.456.08-.162.227-.247.427-.247.219 0 .514.1.904.307a.79.79 0 0 0 .377.098c.557 0 1.047-.605 1.29-.966.244-.364.548-.817 1.092-1.22a.865.865 0 0 1 .48-.166c.136 0 .25.044.33.127.1.103.138.256.118.455-.027.267-.128.612-.29.997-.308.693-.335 1.324-.08 1.877.245.528.759.969 1.375 1.18.464.158.818.229 1.148.229.426 0 .82-.117 1.42-.308.68-.219 1.096-.207 1.24.03.106.176.05.442-.168.793-.285.459-1.162 2.002-.48 2.562.02.016.04.024.06.024.071 0 .191-.093.298-.301.3-.595.803-1.592 1.998-1.592.226 0 .469.037.72.111.092.025.12.082.13.115.02.07-.015.154-.096.236-.472.493-1.454 1.77-.357 2.958.32.34.789.563 1.354.647.175.025.347.038.512.038 1.396 0 2.026-.914 2.164-1.397a4 4 0 0 0 .093-.443c.057-.34.115-.685.428-1.21.284-.632.805-1.204 1.544-1.692 1.714-1.132 2.758-2.874 2.944-3.38l.06-.168c.16-.444.227-.628.537-.638h.02c.103 0 .247.028.35.163.153.2.143.565-.026 1.056-.207.598-1.254 2.08-2.074 2.936-.467.487-.904 1.898-.5 2.916.247.621.759.977 1.522 1.06.129.005.243.011.347.017.78.054 1.458.08 2.075.08 1.83 0 3.126-.228 3.853-.678.744-.462 1.109-.812 1.342-1.291.394-.945.728-2.217 1.021-3.888.882-5.013-.691-7.762-1.12-8.4-.191.209-.488.452-.886.541a1.368 1.368 0 0 1-.312.036 1.45 1.45 0 0 1-.911-.337c-.062.203-.23.581-.65.74-.2.075-.4.113-.594.113-.412 0-.707-.172-.864-.293-.055.239-.241.696-.86.847a1.587 1.587 0 0 1-.385.048c-.39 0-.655-.155-.796-.266-.059.214-.249.61-.851.766a1.416 1.416 0 0 1-1.238-.245c-.032.265-.182.762-.827.91-.132.03-.26.045-.385.045-.483 0-.794-.229-.95-.387-.066.216-.267.598-.873.725a1.96 1.96 0 0 1-.4.044c-.469 0-.757-.198-.901-.336-.074.204-.282.572-.836.715a1.75 1.75 0 0 1-.418.053c-.37 0-.624-.13-.754-.218-.085.155-.307.452-.818.563-.117.025-.23.038-.336.038-.512 0-.804-.287-.925-.444-.085.113-.225.334-.24.579-.023.351.05.612.827 1.482.284.32.697.703 1.097 1.073l.02.02c.975.904 1.818 1.684 1.598 2.084-.08.145-.23.221-.434.221-.416 0-1.107-.307-2.177-.969-.117-.071-.234-.146-.352-.221l-.014-.012-.02-.026c-.278-.186-1.076-.721-1.477-.995-.542-.369-2.984-1.907-3.875-2.41a3.333 3.333 0 0 1-.104-.063l-.04-.024c-.536-.34-2.167-1.371-3.493-1.371a1.87 1.87 0 0 0-.667.111c-.874.33-2.138 1.31-3.192 4.104-.107.257-.466 1.277-.297 1.604.212.441.366 1.287-.967 2.012a.408.408 0 0 0-.176.467c.03.133.085.249.166.358l.01.014.009.01c.014.02.027.036.041.053.177.257.123.535-.188.998a4.493 4.493 0 0 0-.645 1.548c-.005.032-.066.257.015.409l.062.102zM36.883 21.443c-.607.229-1.12.896-.671 1.863.116.268.299.755.423 1.132.124.377.516 1.022 1.5.812.998-.215 1.01-.655.985-1.226-.022-.492-.235-1.432-.492-1.996-.376-.828-1.305-.75-1.745-.585M38.251 30.673c-.573-.017-1.16.157-1.3.881-.14.724-.178.966-.229 1.22a1.182 1.182 0 0 0 1.172 1.316c1.109.073 1.326-.749 1.39-1.063.063-.314.152-1.038.165-1.34.013-.302-.331-.99-1.198-1.014M37.028 27.275c.026.813.068 1.061.068 1.449 0 .46.17 1.152 1.206 1.151 1.148 0 1.266-.756 1.292-1.167.025-.41-.026-1.263-.11-1.788-.112-.701-.698-.869-1.182-.877-.648-.01-1.3.42-1.274 1.232M44.752 35.21s.543-.128 0-.467c-.544-.338-1.512-.82-2.719-.354-1.206.467-1.257 1.337-.645 1.578.611.24 1.332.333 1.24.564-.153.386-1.784-.436-1.934.657-.112.803.373 1.088 1.597 1.182.112 0 .18-.03.182-.108.008-.487.179-2.342 2.279-3.051"/>
        <path fill="#FEFEFE" d="M48.233 36.7c-.772-.036-2.202-.191-2.764-.848-.064-.081-.165-.104-.288-.066-.514.16-1.857.736-2.015 2.408-.018.153.024.226.093.282.175.14.554.39 1.07.42.093.007.168-.041.173-.116.02-.304.146-1.124.657-1.798.351-.529.844-.122.593.245-.132.216-.51 1.022-.448 1.653.012.096.097.165.212.187a5.955 5.955 0 0 0 1.965.044.564.564 0 0 0 .216-.086c.217-.177.738-.638.997-2.037.057-.193-.264-.285-.461-.289M47.84 34.9c-.979-.07-.988-.473-.991-.645-.006-.298.32-.542.452-.629-.373-.31-.526-.775-.526-.776-.383.224-.912.72-.897 1.424.01.424.212 1.425 1.898 1.543.741.042 1.204.222 1.284.305 0 0 .182-.419.744-.588-.457-.51-1.617-.615-1.964-.635M52.722 36.103s-.934-.32-1.928-.252c-.7.094-1.188.437-1.235.997-.14 1.657 1.733 1.594 2.498 1.546.764-.049 3.577 0 3.577 0a5.828 5.828 0 0 0-2.912-2.291"/>
        <path fill="#FEFEFE" d="M46.032 19.986c.314.175.61.366.879.568-.528.26-.867.784-.867 1.348l.002.051a1.077 1.077 0 0 1-.697-.988c0-.421.263-.801.683-.979m1.438 1.035c.209.194.464.46.712.718-.497.22-.843.661-.916 1.171-.449-.154-.747-.554-.747-1.008 0-.465.326-.883.795-1.022l.156.141m1.725 1.777c-.518.235-.86.704-.908 1.242a1.059 1.059 0 0 1-.562-.925c0-.464.326-.88.795-1.019.21.22.436.457.675.702m1.097 1.082a1.507 1.507 0 0 0-.807 1.289 1.072 1.072 0 0 1-.732-1.002c0-.46.323-.875.789-1.016.265.265.51.504.75.729m.361.329c.156.139.286.252.406.355.12.106.248.216.393.335-.48.273-.778.76-.783 1.287a1.076 1.076 0 0 1-.71-.993c0-.432.272-.816.694-.984m1.196 1c.236.178.483.347.733.504-.347.29-.545.702-.545 1.137 0 .138.02.274.058.405-.546-.082-.952-.529-.952-1.057 0-.431.271-.815.706-.988m1.159.756c.26.145.518.278.77.393-.241.273-.373.616-.373.97 0 .202.042.399.126.586-.576-.054-1.02-.512-1.02-1.065 0-.354.186-.684.497-.884m1.225.588c.29.114.583.212.896.299a1.428 1.428 0 0 0 .14 1.517c-.086.02-.173.03-.26.03-.624 0-1.131-.48-1.131-1.072 0-.29.129-.57.355-.774m1.365.415c.271.058.54.099.805.123-.04.135-.061.27-.061.402 0 .396.158.766.447 1.052-.071.013-.142.02-.21.02-.624 0-1.131-.48-1.131-1.072 0-.182.05-.359.15-.525m1.295.147a6.56 6.56 0 0 0 .836-.058c.077.56.458 1.032.984 1.222-.21.185-.48.286-.767.286-.623 0-1.13-.48-1.13-1.072 0-.127.026-.255.077-.378m3.226-.81c.098.168.149.355.149.544 0 .59-.468 1.07-1.042 1.07-.53 0-.97-.401-1.034-.94a7.458 7.458 0 0 0 1.927-.673m-20.634-5.174c.054.224 1.34 5.582.893 9.554.007 1.207.812 2 2.394 2.353.216.038.425.059.618.059 1.536 0 1.96-1.303 2.37-2.563l.08-.243c.423-1.277 1.275-2.298 2.536-3.034.547-.362.976-.526.98-.528a.501.501 0 0 1 .639.252c.05.114.05.241 0 .355a.476.476 0 0 1-.266.25c-.085.036-2.101.9-2.565 2.739-.217.863.055 1.9.728 2.773.555.718 1.869 1.951 4.44 2.13l.45.031a.52.52 0 0 1 .095-.009c3.075 0 5.196-.662 6.302-1.97 1.14-1.345.857-3.034.744-3.52a.44.44 0 0 1 .065-.35.484.484 0 0 1 .414-.214c.23 0 .426.15.477.364.137.587.476 2.633-.936 4.3a4.402 4.402 0 0 1-.16.18c-.405.443-.831.774-1.266.98l-.061.034c.004 0 .012.009.033.019l.037.013c.051.017.199.057.422.057.434 0 1.093-.146 1.775-.834 1.32-1.578 1.478-4.442.954-6.335-.316-1.14-.924-2.136-1.107-2.421-.814.516-2.102 1.116-3.701 1.116-1.37 0-3.554-.648-5.58-2.467-.974-.824-1.856-1.753-2.566-2.499l-.04-.043c-.382-.4-.71-.746-.974-.992-1.076-1.004-2.39-1.564-3.303-1.858l-.2-.054-.089-.025a11.382 11.382 0 0 0-.842-.21 4.364 4.364 0 0 0-1.59-.047c-.246.067-.48.127-.671.171l-.058.019c-.022.007-.044.014-.066.023-.8.357-1.696 1.07-1.409 2.428l.004.016M16.687 7.136c.073-.089.138-.179.208-.274l.004-.005c.056-.078.115-.157.176-.235.066-.081.129-.152.193-.213l-.19-.04c-.192-.041-.373-.08-.554-.108a3.625 3.625 0 0 0-.774-.043c.066.09.117.185.15.287.168.528-.148 1.087-.705 1.247-.1.028-.202.042-.306.042-.431 0-.818-.25-.978-.629a5.7 5.7 0 0 0-.317.445c.37.17.682.266.98.302.433.051.836.013 1.185-.114.366-.123.679-.346.928-.662"/>
        <path fill="#FEFEFE" d="M13.437 7.976l-.123.215a.209.209 0 0 1-.24.094.19.19 0 0 1-.14-.207c.072-.53.264-1.032.567-1.494.17-.253.37-.47.595-.642.217-.174.518-.315.847-.395.283-.075.584-.11.887-.101.293.01.584.058.866.14.131.04.26.084.395.136l.411.178c.1.045.199.09.298.129a.9.9 0 0 0 .298.076.2.2 0 0 1 .192.158.188.188 0 0 1-.12.212 1.088 1.088 0 0 1-.44.055c-.08.08-.15.182-.235.337l-.065.12-.014.026a5.395 5.395 0 0 1-.252.434 2.37 2.37 0 0 1-.505.551 2.334 2.334 0 0 1-.686.363 2.658 2.658 0 0 1-.877.143 2.873 2.873 0 0 1-1.66-.528m2.366 6.33c.128-.032.304-.048.543-.048.136 0 .28.005.42.01l.052.002c.122.004.247.008.364.008.184 0 .322-.01.436-.029l.119-.02c1.407-.236 2.864-.48 3.464-1.437.474-.76.362-1.81-.315-2.96l-.01-.016c-.015-.027-.032-.054-.05-.083l-.02-.032c-.219-.36-.586-.962-.066-1.307.437-.29.983-.678 1.121-.777-.055-.17-.164-.68.376-1.011.29-.178.54-.202.744-.202.064 0 .126.002.186.005.055.002.11.005.161.005.111 0 .24-.01.366-.077a.75.75 0 0 1 .331-.109c.12 0 .158.068.17.098.031.082-.017.188-.127.275-.037.029-.112.082-.214.156-.419.303-1.389 1.005-1.533 1.283-.103.201-.274.735-.112 1.013.056.096.148.15.28.164 1.285-.065 2.153-1.142 2.248-1.266.244-.388.326-.582.473-.934.062-.148.167-.396.318-.728.097-.21.294-.534.455-.788a4.112 4.112 0 0 0-1.291-.195c-.332 0-.594.034-.735.051l-.072.01c-2.157.367-3.53 2.074-3.543 2.091-.347.453-.708.683-1.074.683a.843.843 0 0 1-.561-.216l-.02-.018c-.133-.122-.38-.348.012-1.14.376-.759.225-1.843-.344-2.47-.366-.402-1.075-.461-1.466-.461-.2 0-.35.015-.405.021l-.066.008c-.417.09-1.42.446-2.513 1.86a22.466 22.466 0 0 1-1.655 1.892c-.364.455-.869.833-1.314 1.167-.51.38-.946.706-1.018 1.025l-.008.031c-.024.12-.062.298-.185.397-.142.112-.256.114-.402.116-.164.002-.388.005-.811.169-.549.212-.831.68-.865 1.432.003.475.17.98.496 1.494.238.373.533.703.878.978.235.172.53.26.88.26.368 0 .787-.103 1.15-.281.724-.357.907-.858 1.015-1.157.028-.076.05-.137.076-.187.06-.116.378-.697.831-.697.19 0 .37.1.538.298.1.118.142.247.125.383-.034.28-.313.513-.519.664-.036.027-.22.17-.246.374a.451.451 0 0 0 .122.349c.013.022.165.299.67.299.055 0 .113-.004.173-.01.338-.039.668-.124.987-.208.302-.08.645-.17.98-.207M14.983 20c.024 0 .04-.002.042-.002l.084-.01a.857.857 0 0 0 .035.447.588.588 0 0 0-.371.533c0 .329.282.596.63.596.346 0 .628-.267.628-.596 0-.324-.274-.589-.615-.596v-.002c-.066-.094-.049-.295-.02-.412h.004c.422-.05.866-.121 1.32-.212l.033-.006c-.016.131-.021.318.047.464a.52.52 0 0 0-.275.446c0 .293.252.531.56.531.31 0 .561-.238.561-.531 0-.293-.252-.53-.56-.53-.008 0-.015.003-.023.003v-.001c-.062-.088-.05-.3-.022-.443l.012-.003c.35-.075.72-.165 1.127-.274l.04-.01a.827.827 0 0 0 .042.414.424.424 0 0 0-.22.364c0 .24.206.436.459.436a.45.45 0 0 0 .46-.436c0-.229-.19-.412-.428-.429v-.003c-.068-.097-.048-.31-.019-.427.185-.052.358-.102.52-.15l.122-.035.036.015a1.457 1.457 0 0 0 1.154.17c.554-.152.731-.568.788-.802l.007-.028.083-.04.043-.013.035.052c.089.146.357.243.67.243.18 0 .364-.032.535-.092.523-.187.669-.61.634-.914l-.006-.055.142-.065.042.04c.16.174.421.272.718.272.18 0 .369-.038.543-.11.443-.186.648-.598.508-1.027l-.018-.057.054-.032a.3.3 0 0 1 .03-.016l.065-.035.044.045a1.058 1.058 0 0 0 1.261.178c.43-.241.608-.737.425-1.177l-.024-.057.152-.097.047.044c.19.173.44.27.704.27.221 0 .433-.068.61-.195a.923.923 0 0 0 .283-1.212l-.031-.056.132-.104.052.046c.16.14.388.217.642.217.323 0 .634-.123.876-.347.308-.287.453-.825.168-1.24a4.806 4.806 0 0 1-.45-.112 3.099 3.099 0 0 1-.23-.092 27.113 27.113 0 0 1-6.037 4.058 29.227 29.227 0 0 1-4.338 1.752c-2.093.655-3.74.91-4.536 1.005-.212.06-.233.158-.223.254.014.124.093.188.237.188M14.211 25.733c0 .438.376.795.839.795.462 0 .838-.357.838-.795 0-.438-.376-.795-.838-.795l-.012.001a.152.152 0 0 0-.007-.02.444.444 0 0 1 0-.337.15.15 0 0 0-.08-.2.164.164 0 0 0-.066-.014.163.163 0 0 0-.147.09.725.725 0 0 0-.018.539l.002.004a.797.797 0 0 0-.51.732M16.212 25.63c0 .44.376.796.839.796.462 0 .838-.357.838-.795 0-.438-.375-.794-.836-.795l-.003-.012a.088.088 0 0 0-.007-.023c-.077-.168-.001-.336 0-.338a.15.15 0 0 0-.082-.2.168.168 0 0 0-.066-.013.16.16 0 0 0-.145.09.723.723 0 0 0-.019.539l.007.015a.798.798 0 0 0-.526.737M18.179 25.427c0 .438.376.795.839.795.463 0 .839-.357.839-.795 0-.377-.28-.693-.654-.774a.918.918 0 0 0-.142-.017l-.02-.002h-.007l-.013-.001-.004-.017a.082.082 0 0 0-.007-.023.436.436 0 0 1-.001-.337.15.15 0 0 0-.081-.2.163.163 0 0 0-.212.076.722.722 0 0 0-.018.538l.008.02a.8.8 0 0 0-.527.737M20.099 25.082c0 .438.376.795.838.795.463 0 .84-.357.84-.795 0-.437-.376-.793-.837-.795l-.003-.01c-.002-.01-.004-.018-.007-.025-.078-.167-.001-.335-.001-.337a.15.15 0 0 0-.08-.2.165.165 0 0 0-.066-.013.162.162 0 0 0-.147.09.723.723 0 0 0-.018.539l.006.014a.797.797 0 0 0-.525.737M22.747 23.945h-.001l-.002.002a.84.84 0 0 0-.2.12.775.775 0 0 0-.305.608c0 .439.376.796.839.796.463 0 .84-.357.84-.796a.788.788 0 0 0-.423-.686c-.03-.016-.058-.033-.09-.046l-.014-.004a.863.863 0 0 0-.142-.042c-.006 0-.012 0-.018-.003-.042-.006-.086-.014-.13-.015h-.019l-.004-.018a.445.445 0 0 1-.009-.358.15.15 0 0 0-.08-.201.17.17 0 0 0-.066-.014.162.162 0 0 0-.146.09.731.731 0 0 0-.018.539l.008.02-.011.004-.009.004M24.446 24.287c0 .438.377.795.838.795.464 0 .84-.357.84-.795 0-.438-.376-.795-.838-.795l-.002-.002a.093.093 0 0 0-.007-.024c-.078-.167-.001-.335 0-.337a.149.149 0 0 0-.081-.2.163.163 0 0 0-.212.076.728.728 0 0 0-.019.54l.003.007a.798.798 0 0 0-.522.735M26.997 22.913a.862.862 0 0 0-.172.103l-.014.013a.772.772 0 0 0-.301.604c0 .438.375.795.838.795.463 0 .84-.357.84-.795a.78.78 0 0 0-.34-.635.842.842 0 0 0-.477-.162h-.02l-.003-.018a.27.27 0 0 0-.008-.024.443.443 0 0 1 0-.335.15.15 0 0 0-.081-.2.176.176 0 0 0-.066-.015.162.162 0 0 0-.146.09.729.729 0 0 0-.019.54l.009.02-.021.008-.019.011M28.514 23.009c0 .438.377.795.838.795.463 0 .84-.357.84-.795 0-.438-.376-.794-.838-.795l-.002-.005c-.002-.009-.003-.016-.007-.025a.44.44 0 0 1 0-.336.148.148 0 0 0-.08-.2.162.162 0 0 0-.212.076.724.724 0 0 0-.02.54l.005.01a.796.796 0 0 0-.524.735M30.57 22.43c0 .438.377.795.839.795.462 0 .839-.357.839-.795 0-.425-.354-.77-.797-.792l-.02-.002h-.019l-.003-.017c-.002-.008-.004-.017-.008-.024-.075-.163-.004-.33-.001-.336a.15.15 0 0 0-.08-.2.177.177 0 0 0-.066-.014.163.163 0 0 0-.147.09c-.004.01-.123.261-.017.539l.007.019a.798.798 0 0 0-.527.737M33.232 21.016a.857.857 0 0 0-.193.117.774.774 0 0 0-.304.607c0 .438.376.795.84.795.462 0 .838-.357.838-.795a.785.785 0 0 0-.423-.686c-.03-.016-.058-.033-.09-.046h-.003a.858.858 0 0 0-.3-.063l-.019-.002-.004-.016a.439.439 0 0 1-.008-.36.149.149 0 0 0-.081-.2.163.163 0 0 0-.066-.014.16.16 0 0 0-.146.089c-.005.011-.124.262-.018.54l.007.02-.02.008-.01.006"/>
    </g>
</svg>
